<svg width="42" height="28" viewBox="0 0 42 28" fill="none" xmlns="http://www.w3.org/2000/svg">
<g clip-path="url(#clip0_1702_38711)">
<path d="M2.16927 10.099H3.79167L2.97135 8.13021L2.16927 10.099ZM13.4896 19.6875L14.8385 18.2474L13.5625 16.8073H10.5911V17.7005H13.1797V18.7031H10.5911V19.6875H13.4896ZM16.3698 18.2656L18.1745 20.2708V16.3151L16.3698 18.2656ZM21.6198 17.4089C21.6198 17.0078 21.3767 16.8073 20.8906 16.8073H19.3594V18.0651H20.8724C21.3707 18.0651 21.6198 17.8464 21.6198 17.4089ZM26.888 17.3359C26.888 16.9835 26.6328 16.8073 26.1224 16.8073H24.6276V17.9193H26.1042C26.6267 17.9193 26.888 17.7248 26.888 17.3359ZM21.8203 8.84115C21.8203 8.48872 21.5651 8.3125 21.0547 8.3125H19.5599V9.40625H21.0365C21.559 9.40625 21.8203 9.21788 21.8203 8.84115ZM30.1875 10.099H31.8099L31.0078 8.13021L30.1875 10.099ZM12.7422 7.27344V12.2135H11.5391V8.34896L9.82552 12.2135H8.78646L7.07292 8.34896V12.2135H4.66667L4.21094 11.1198H1.75L1.29427 12.2135H0.0182292L2.13281 7.27344H3.88281L5.88802 11.9583V7.27344H7.82031L9.36979 10.6276L10.7734 7.27344H12.7422ZM22.8776 17.4089C22.8776 17.6519 22.8442 17.8646 22.7773 18.0469C22.7105 18.2292 22.6254 18.3811 22.5221 18.5026C22.4188 18.6241 22.2821 18.7244 22.112 18.8034C21.9418 18.8824 21.7839 18.9431 21.638 18.9857C21.4922 19.0282 21.3008 19.0556 21.0638 19.0677C20.8268 19.0799 20.6354 19.0859 20.4896 19.0859C20.3438 19.0859 20.1463 19.0829 19.8971 19.0768C19.648 19.0707 19.4688 19.0677 19.3594 19.0677V20.7266H17.0625L15.6042 19.0859L14.0911 20.7266H9.42448V15.7865H14.1641L15.6224 17.4089L17.1172 15.7865H20.8906C22.2153 15.7865 22.8776 16.3273 22.8776 17.4089ZM17.5729 11.1927V12.2135H13.6172V7.27344H17.5729V8.3125H14.8021V9.20573H17.5V10.2083H14.8021V11.1927H17.5729ZM42 21.3828V25.5573C42 26.2257 41.7661 26.7999 41.2982 27.2799C40.8303 27.76 40.2621 28 39.5938 28H2.40625C1.73785 28 1.1697 27.76 0.701823 27.2799C0.233941 26.7999 0 26.2257 0 25.5573V13.1979H2.02344L2.47917 12.0859H3.48177L3.9375 13.1979H7.91146V12.3594L8.25781 13.1979H10.3177L10.6823 12.3411V13.1979H20.5443V11.3932L20.7266 11.375C20.8481 11.375 20.9089 11.4601 20.9089 11.6302V13.1979H25.9948V12.7786C26.2743 12.9245 26.6085 13.0339 26.9974 13.1068C27.3863 13.1797 27.7053 13.2192 27.9544 13.2253C28.2036 13.2313 28.5864 13.2283 29.1029 13.2161C29.6194 13.204 29.9323 13.1979 30.0417 13.1979L30.4974 12.0859H31.5182L31.974 13.1979H36.112V12.1406L36.7318 13.1979H40.0495V6.30729H36.7682V7.10937L36.3125 6.30729H32.9401V7.10937L32.5208 6.30729H27.9818C27.1432 6.30729 26.4809 6.44097 25.9948 6.70833V6.30729H22.8594V6.70833C22.5677 6.44097 22.1241 6.30729 21.5286 6.30729H10.0807L9.29688 8.07552L8.51302 6.30729H4.90365V7.10937L4.5026 6.30729H1.42188L0 9.57031V2.44271C0 1.77431 0.233941 1.20009 0.701823 0.720052C1.1697 0.240017 1.73785 0 2.40625 0H39.5938C40.2621 0 40.8303 0.240017 41.2982 0.720052C41.7661 1.20009 42 1.77431 42 2.44271V14.8021H39.8125C39.1927 14.8021 38.7005 14.9358 38.3359 15.2031V14.8021H35.1094C34.441 14.8021 33.967 14.9358 33.6875 15.2031V14.8021H27.9271V15.2031C27.5503 14.9358 27.0217 14.8021 26.3411 14.8021H22.5312V15.2031C22.2517 14.9358 21.6988 14.8021 20.8724 14.8021H16.6068L15.6224 15.8594L14.7109 14.8021H8.34896V21.6927H14.6016L15.6042 20.6172L16.5521 21.6927H20.3984V20.0703H20.7812C21.4983 20.0703 22.0451 19.9913 22.4219 19.8333V21.6927H25.5938V19.888H25.7396C25.8368 19.888 25.8976 19.9002 25.9219 19.9245C25.9462 19.9488 25.9583 20.0095 25.9583 20.1068V21.6927H35.6016C36.2943 21.6927 36.829 21.5469 37.2057 21.2552V21.6927H40.2682C40.9974 21.6927 41.5746 21.5894 42 21.3828ZM28.1823 17.1172C28.1823 17.3967 28.1094 17.658 27.9635 17.901C27.8177 18.1441 27.6111 18.3203 27.3438 18.4297C27.6476 18.5391 27.8542 18.697 27.9635 18.9036C28.0729 19.1102 28.1276 19.3898 28.1276 19.7422V20.7266H26.9427V19.9062C26.9427 19.5052 26.8698 19.2409 26.724 19.1133C26.5781 18.9857 26.2986 18.9219 25.8854 18.9219H24.6276V20.7266H23.4427V15.7865H26.25C26.8333 15.7865 27.3012 15.8776 27.6536 16.0599C28.0061 16.2422 28.1823 16.5946 28.1823 17.1172ZM23.1328 8.60417C23.1328 8.89583 23.0569 9.16319 22.9049 9.40625C22.753 9.64931 22.5495 9.82552 22.2943 9.9349C22.6102 10.0443 22.8199 10.1992 22.9232 10.3997C23.0265 10.6003 23.0781 10.8828 23.0781 11.2474V12.2135H21.8932C21.8932 12.1042 21.8963 11.9431 21.9023 11.7305C21.9084 11.5178 21.9084 11.3659 21.9023 11.2747C21.8963 11.1836 21.878 11.0712 21.8477 10.9375C21.8173 10.8038 21.7656 10.7066 21.6927 10.6458C21.6198 10.5851 21.5135 10.5334 21.3737 10.4909C21.2339 10.4483 21.0547 10.4271 20.8359 10.4271H19.5599V12.2135H18.3932V7.27344L21.1823 7.29167C21.7778 7.29167 22.2517 7.37977 22.6042 7.55599C22.9566 7.7322 23.1328 8.0816 23.1328 8.60417ZM32.776 19.7057V20.7266H28.8385V15.7865H32.776V16.8073H30.0234V17.7005H32.7214V18.7031H30.0234V19.6875L32.776 19.7057ZM25.0104 7.27344V12.2135H23.8073V7.27344H25.0104ZM37.6432 19.1589C37.6432 20.204 37.0234 20.7266 35.7839 20.7266H33.487V19.6693H35.7839C36.197 19.6693 36.4036 19.5174 36.4036 19.2135C36.4036 19.0191 36.3003 18.8915 36.0938 18.8307C35.8871 18.77 35.635 18.7396 35.3372 18.7396C35.0395 18.7396 34.7387 18.7183 34.4349 18.6758C34.1311 18.6332 33.8759 18.4965 33.6693 18.2656C33.4627 18.0347 33.3594 17.7005 33.3594 17.263C33.3594 16.7891 33.5174 16.4245 33.8333 16.1693C34.1493 15.9141 34.5503 15.7865 35.0365 15.7865H37.4062V16.8255H35.237C34.7995 16.8255 34.5807 16.9774 34.5807 17.2812C34.5807 17.4757 34.6871 17.6003 34.8997 17.6549C35.1124 17.7096 35.3676 17.7339 35.6654 17.7279C35.9631 17.7218 36.2608 17.737 36.5586 17.7734C36.8563 17.8099 37.1115 17.9405 37.3242 18.1654C37.5369 18.3902 37.6432 18.7214 37.6432 19.1589ZM42 18.2474V20.0885C41.7083 20.5139 41.1736 20.7266 40.3958 20.7266H38.1172V19.6693H40.3958C40.7969 19.6693 40.9974 19.5174 40.9974 19.2135C40.9974 19.0556 40.9214 18.9401 40.7695 18.8672C40.6176 18.7943 40.4293 18.7609 40.2044 18.7669C39.9796 18.773 39.7365 18.7609 39.4753 18.7305C39.214 18.7001 38.9709 18.6515 38.7461 18.5846C38.5213 18.5178 38.3329 18.372 38.181 18.1471C38.0291 17.9223 37.9531 17.6276 37.9531 17.263C37.9531 16.7891 38.1141 16.4245 38.4362 16.1693C38.7582 15.9141 39.1623 15.7865 39.6484 15.7865H42V16.8255H39.849C39.4115 16.8255 39.1927 16.9774 39.1927 17.2812C39.1927 17.5243 39.3689 17.658 39.7214 17.6823C40.0738 17.7066 40.49 17.737 40.9701 17.7734C41.4501 17.8099 41.7934 17.9679 42 18.2474ZM38.9922 7.29167V12.2135H37.3151L35.0911 8.51302V12.2135H32.6849L32.2109 11.1198H29.7682L29.3125 12.2135H27.9453C26.3776 12.2135 25.5938 11.4054 25.5938 9.78906C25.5938 8.11198 26.4019 7.27344 28.0182 7.27344H29.1667V8.34896C29.0816 8.34896 28.9115 8.34288 28.6562 8.33073C28.401 8.31858 28.2279 8.31554 28.1367 8.32161C28.0456 8.32769 27.9058 8.33984 27.7174 8.35807C27.5291 8.3763 27.3984 8.4158 27.3255 8.47656C27.2526 8.53733 27.1645 8.61936 27.0612 8.72266C26.9579 8.82595 26.888 8.96571 26.8516 9.14193C26.8151 9.31814 26.7969 9.5217 26.7969 9.7526C26.7969 10.2144 26.8789 10.5668 27.043 10.8099C27.207 11.053 27.5078 11.1745 27.9453 11.1745H28.474L30.151 7.29167H31.9193L33.9062 11.9583V7.29167H35.7109L37.7891 10.7188V7.29167H38.9922Z" fill="#1289DF"/>
</g>
<defs>
<clipPath id="clip0_1702_38711">
<rect width="42" height="28" fill="white"/>
</clipPath>
</defs>
</svg>
