<svg width="80" height="51" viewBox="0 0 80 51" fill="none" xmlns="http://www.w3.org/2000/svg">
<path d="M47.7677 11.9297H32.1855V39.2247H47.7677V11.9297Z" fill="#FF5A00"/>
<path d="M33.2232 25.5772C33.2232 20.0316 35.897 15.1098 40 11.9297C36.9804 9.61484 33.1713 8.21582 29.0164 8.21582C19.1739 8.21582 11.21 15.9807 11.21 25.5772C11.21 35.1737 19.1739 42.9385 29.0164 42.9385C33.1713 42.9385 36.9804 41.5395 40 39.2247C35.8913 36.0895 33.2232 31.1227 33.2232 25.5772Z" fill="#EB001B"/>
<path d="M68.791 25.5772C68.791 35.1737 60.827 42.9385 50.9846 42.9385C46.8297 42.9385 43.0206 41.5395 40.001 39.2247C44.1558 36.039 46.7778 31.1227 46.7778 25.5772C46.7778 20.0316 44.104 15.1098 40.001 11.9297C43.0148 9.61484 46.8239 8.21582 50.9787 8.21582C60.827 8.21582 68.791 16.0312 68.791 25.5772Z" fill="#F79E1B"/>
</svg>
