<svg width="27" height="27" viewBox="0 0 27 27" fill="none" xmlns="http://www.w3.org/2000/svg">
<g clip-path="url(#clip0_1702_38702)">
<path fill-rule="evenodd" clip-rule="evenodd" d="M13.5 0C20.9558 0 27 6.0442 27 13.5C27 20.9559 20.9558 27 13.5 27C6.0442 27 0 20.9559 0 13.5C0 6.0442 6.0442 0 13.5 0Z" fill="#0E0E11"/>
<path fill-rule="evenodd" clip-rule="evenodd" d="M9.49481 12.5287L5.3539 14.3132C5.3474 14.2412 5.34409 14.1689 5.34399 14.0966C5.34399 12.7867 6.40574 11.7249 7.71556 11.7249C8.42431 11.7249 9.06028 12.0359 9.49481 12.5287ZM7.71556 9.95125C9.66958 9.95125 11.3075 11.3034 11.7455 13.1229L10.0749 13.8534L10.0745 13.8499L8.36514 14.6008L4.26483 16.3938C3.8108 15.7138 3.56906 14.9142 3.57032 14.0966C3.57032 11.8072 5.42615 9.95125 7.71556 9.95125ZM10.6121 17.062C9.12799 18.4706 7.16438 18.6089 5.43912 17.5615L6.41397 16.0793C7.39567 16.6661 8.38201 16.571 9.37279 15.7931L10.6121 17.0618V17.062ZM12.3001 16.0357L12.2895 8.19678H13.7747V15.8242C13.7747 15.8973 13.7838 15.9617 13.8798 15.999L15.1718 16.5015L14.5897 18.015L13.0762 17.3747C12.5024 17.1318 12.301 16.7799 12.3 16.0357H12.3001Z" fill="white"/>
<path fill-rule="evenodd" clip-rule="evenodd" d="M17.8913 15.9041C17.3346 15.4711 16.9761 14.7956 16.9761 14.0358C16.9761 13.3604 17.2596 12.7515 17.7136 12.3205L16.7544 10.7659C15.7901 11.5298 15.1709 12.7102 15.1709 14.0358C15.1709 15.4648 15.8898 16.7254 16.9853 17.4771L17.8913 15.9041Z" fill="#2091C3"/>
<path fill-rule="evenodd" clip-rule="evenodd" d="M18.5418 11.8092C18.7986 11.7169 19.0694 11.6698 19.3423 11.67C20.3551 11.67 21.2189 12.3069 21.5563 13.2018L23.3944 13.0482C22.9507 11.2215 21.3054 9.86487 19.3423 9.86487C18.8048 9.86451 18.2724 9.96838 17.7744 10.1707L18.5418 11.8092Z" fill="#FAEC32"/>
<path fill-rule="evenodd" clip-rule="evenodd" d="M21.705 14.1504C21.6451 15.4038 20.6102 16.4016 19.3421 16.4016C19.1433 16.4016 18.9504 16.3766 18.766 16.3305L18.0449 18C18.4637 18.137 18.9016 18.2068 19.3422 18.2067C21.5881 18.2067 23.4186 16.4312 23.5086 14.2072L21.705 14.1504Z" fill="#D0352A"/>
</g>
<defs>
<clipPath id="clip0_1702_38702">
<rect width="27" height="27" fill="white"/>
</clipPath>
</defs>
</svg>
